<svg xmlns="http://www.w3.org/2000/svg" width="24" height="24" viewBox="0 0 24 24">
  <g id="Сгруппировать_6766" data-name="Сгруппировать 6766" transform="translate(0 -44)">
    <path id="Контур_7436" data-name="Контур 7436" d="M6.546,64.382a10,10,0,0,1,0-16.764,1,1,0,1,0-1.092-1.676,12,12,0,0,0,0,20.116,1,1,0,1,0,1.092-1.676Z" fill="#fff"/>
    <path id="Контур_7437" data-name="Контур 7437" d="M18.546,45.942a1,1,0,1,0-1.092,1.676,10,10,0,0,1,0,16.764,1,1,0,0,0,1.092,1.676,12,12,0,0,0,0-20.116Z" fill="#fff"/>
    <path id="Контур_7438" data-name="Контур 7438" d="M15,66H13V64a6.006,6.006,0,0,0,6-6V55a1,1,0,0,0-2,0v3a4,4,0,0,1-4,4H11a4,4,0,0,1-4-4V55a1,1,0,0,0-2,0v3a6.006,6.006,0,0,0,6,6v2H9a1,1,0,0,0,0,2h6a1,1,0,0,0,0-2Z" fill="#fff"/>
    <path id="Контур_7439" data-name="Контур 7439" d="M11,61h2a3,3,0,0,0,3-3V47a3,3,0,0,0-3-3H11a3,3,0,0,0-3,3V58A3,3,0,0,0,11,61ZM10,47a1,1,0,0,1,1-1h2a1,1,0,0,1,1,1V58a1,1,0,0,1-1,1H11a1,1,0,0,1-1-1Z" fill="#fff"/>
  </g>
</svg>
