<svg xmlns="http://www.w3.org/2000/svg" width="19.999" height="20" viewBox="0 0 19.999 20">
  <path id="Контур_7572" data-name="Контур 7572" d="M20,4.583a4.577,4.577,0,0,0-7.989-3.057A6.236,6.236,0,0,0,2.917,7.083v4.583c0,1.778-1.007,2.769-2.282,4.024l-.39.386A.834.834,0,0,0,.834,17.5H5.952a3.317,3.317,0,0,0,6.43,0H17.5a.842.842,0,0,0,.318-.064.83.83,0,0,0,.451-.451.842.842,0,0,0,.064-.318h0v0a.838.838,0,0,0-.244-.586l-.386-.383c-1.278-1.258-2.286-2.251-2.286-4.028v-2.5A4.589,4.589,0,0,0,20,4.583ZM15.417,1.667A2.917,2.917,0,1,1,12.5,4.583,2.92,2.92,0,0,1,15.417,1.667ZM9.167,18.333A1.661,1.661,0,0,1,7.732,17.5H10.6A1.661,1.661,0,0,1,9.167,18.333Zm6.343-2.5H2.825a5.908,5.908,0,0,0,1.758-4.167V7.083a4.582,4.582,0,0,1,6.558-4.136,4.541,4.541,0,0,0-.307,1.636A4.587,4.587,0,0,0,13.75,8.848v2.818A5.914,5.914,0,0,0,15.51,15.833Z" transform="translate(-0.001)" fill="#fff"/>
</svg>
