<svg xmlns="http://www.w3.org/2000/svg" width="24" height="24" viewBox="0 0 24 24">
  <path id="Объединение_6" data-name="Объединение 6" d="M0-15A12.013,12.013,0,0,1,12-27,12.013,12.013,0,0,1,24-15q0,.388-.024.77A12.015,12.015,0,0,1,12-3,12.013,12.013,0,0,1,0-15ZM12-5A10.011,10.011,0,0,0,22-15,10.011,10.011,0,0,0,12-25,10.012,10.012,0,0,0,2-15,10.011,10.011,0,0,0,12-5Zm3.312-3.809L12-11.215,8.689-8.809a1,1,0,0,1-.588.191,1,1,0,0,1-.588-.191A1,1,0,0,1,7.15-9.927L8.415-13.82,5.1-16.226a1,1,0,0,1-.364-1.118,1,1,0,0,1,.95-.691H9.784l1.265-3.892a1,1,0,0,1,.95-.691,1,1,0,0,1,.951.691l1.264,3.892h4.093a1,1,0,0,1,.951.691,1,1,0,0,1-.365,1.118L15.586-13.82l1.264,3.893a1,1,0,0,1-.364,1.118,1,1,0,0,1-.588.192A1,1,0,0,1,15.312-8.809ZM12.588-13.26,14-12.236l-.538-1.657a1,1,0,0,1,.364-1.118l1.408-1.024H13.489a1,1,0,0,1-.951-.69L12-18.382l-.538,1.656a1,1,0,0,1-.95.69H8.769l1.409,1.024a1,1,0,0,1,.364,1.118L10-12.236l1.409-1.023A1,1,0,0,1,12-13.451,1.006,1.006,0,0,1,12.588-13.26Z" transform="translate(0 27)" fill="#fff"/>
</svg>
