<svg xmlns="http://www.w3.org/2000/svg" width="22" height="19.005" viewBox="0 0 22 19.005">
  <g id="Group_6915" data-name="Group 6915" transform="translate(0 0)">
    <path id="Path_7579" data-name="Path 7579" d="M15.083,18.219l-3.444-5.886a.742.742,0,0,0-1.214,0L6.97,18.219a.694.694,0,0,0,.607,1.028h6.909a.676.676,0,0,0,.6-.343.654.654,0,0,0,0-.685Zm-6.3-.343,2.25-3.829,2.25,3.829Z" transform="translate(-0.031 -0.248)" fill="#fff"/>
    <path id="Path_7581" data-name="Path 7581" d="M21.91,12.076,15.052.353V.343A.692.692,0,0,0,14.444,0H7.556a.851.851,0,0,0-.239.059.62.62,0,0,1-.11.029.643.643,0,0,0-.259.255L.09,12.076a.7.7,0,0,0,0,.686l3.464,5.9a.676.676,0,0,0,.6.343.692.692,0,0,0,.607-.343L11,7.972l6.242,10.685a.692.692,0,0,0,.607.343.676.676,0,0,0,.6-.343l3.464-5.9a.7.7,0,0,0,0-.681ZM4.151,16.943,1.5,12.419,7.556,2.066l2.638,4.525ZM8.76,1.371h4.49L11,5.22Zm9.089,15.572L11.806,6.591l2.638-4.525L20.5,12.419Z" fill="#fff"/>
  </g>
</svg>
