<svg xmlns="http://www.w3.org/2000/svg" width="20" height="17.995" viewBox="0 0 20 17.995">
  <path id="Контур_2194" data-name="Контур 2194" d="M10,19a1,1,0,0,1-.7-.283L1.85,11.475a6.026,6.026,0,0,1,0-8.689A6.393,6.393,0,0,1,10,2.2a6.407,6.407,0,0,1,8.159.587,6.045,6.045,0,0,1,0,8.686l0,0-7.463,7.243A1,1,0,0,1,10,19ZM6.277,3A4.339,4.339,0,0,0,3.244,4.221a4.024,4.024,0,0,0,0,5.819L10,16.606l6.766-6.566a4.045,4.045,0,0,0,0-5.821,4.382,4.382,0,0,0-6.068,0,1,1,0,0,1-1.4,0A4.308,4.308,0,0,0,6.277,3Z" transform="translate(0 -1.005)" fill="#eff0f6"/>
</svg>
