<svg xmlns="http://www.w3.org/2000/svg" width="24" height="24" viewBox="0 0 24 24">
  <g id="Сгруппировать_6765" data-name="Сгруппировать 6765" transform="translate(-88)">
    <path id="Контур_7434" data-name="Контур 7434" d="M100,0a11.945,11.945,0,0,0-6.653,2.023.989.989,0,0,0-1.974.013l-.148,2.116a1,1,0,0,0,.927,1.067l2.117.148c.023,0,.046,0,.07,0a1,1,0,0,0,.442-1.895A10,10,0,1,1,90,12a1,1,0,0,0-2,0A12,12,0,1,0,100,0Z" fill="#fff"/>
    <path id="Контур_7435" data-name="Контур 7435" d="M97.154,17.928a.99.99,0,0,0,.5-.134l8.536-4.928a1,1,0,0,0,0-1.732L97.654,6.206a1,1,0,0,0-1.5.866v9.856a1,1,0,0,0,1,1Zm1-9.124L103.69,12l-5.536,3.2Z" fill="#fff"/>
  </g>
</svg>
