<svg xmlns="http://www.w3.org/2000/svg" width="24" height="24" viewBox="0 0 24 24">
  <g id="Сгруппировать_4316" data-name="Сгруппировать 4316" transform="translate(-88)">
    <path id="Контур_1947" data-name="Контур 1947" d="M95.5,21A3.283,3.283,0,0,0,99,18V11.781l3.242-.811a1,1,0,1,0-.484-1.94l-4,1A1,1,0,0,0,97,11v4.3a3.943,3.943,0,0,0-1.5-.3A3.283,3.283,0,0,0,92,18,3.283,3.283,0,0,0,95.5,21Zm0-4c.8,0,1.5.467,1.5,1s-.7,1-1.5,1S94,18.533,94,18,94.7,17,95.5,17Z" fill="#fff"/>
    <path id="Контур_1948" data-name="Контур 1948" d="M104,6H90a2,2,0,0,0-2,2V22a2,2,0,0,0,2,2h14a2,2,0,0,0,2-2V8A2,2,0,0,0,104,6Zm0,16H90V8h14Z" fill="#fff"/>
    <path id="Контур_1949" data-name="Контур 1949" d="M107,3H92a2,2,0,0,0-2,2h17V21a2,2,0,0,0,2-2V5A2,2,0,0,0,107,3Z" fill="#fff"/>
    <path id="Контур_1950" data-name="Контур 1950" d="M110,0H95a2,2,0,0,0-2,2h17V18a2,2,0,0,0,2-2V2A2,2,0,0,0,110,0Z" fill="#fff"/>
  </g>
</svg>
