<svg xmlns="http://www.w3.org/2000/svg" width="20" height="20" viewBox="0 0 20 20">
  <path id="Контур_2059" data-name="Контур 2059" d="M16.25,12.5a3.729,3.729,0,0,0-2.883,1.38l-5.983-3a3.413,3.413,0,0,0,0-1.763l5.983-3A3.729,3.729,0,1,0,12.5,3.75a3.71,3.71,0,0,0,.116.882l-5.983,3a3.75,3.75,0,1,0,0,4.74l5.983,3a3.71,3.71,0,0,0-.116.882,3.75,3.75,0,1,0,3.75-3.75Zm0-10.833A2.083,2.083,0,1,1,14.167,3.75,2.086,2.086,0,0,1,16.25,1.667ZM3.75,12.083A2.083,2.083,0,1,1,5.833,10,2.086,2.086,0,0,1,3.75,12.083Zm12.5,6.25a2.083,2.083,0,1,1,2.083-2.083A2.086,2.086,0,0,1,16.25,18.333Z" fill="#fff"/>
</svg>
