<svg xmlns="http://www.w3.org/2000/svg" width="19" height="26" viewBox="0 0 19 26">
  <g id="upload" transform="translate(-56.887)">
    <g id="Сгруппировать_230" data-name="Сгруппировать 230" transform="translate(56.887 0)">
      <path id="Контур_1117" data-name="Контур 1117" d="M72.655,159.88H70.621a.736.736,0,0,0,0,1.471h2.034a1.859,1.859,0,0,1,1.815,1.891V173.8a1.859,1.859,0,0,1-1.815,1.891H60.114A1.859,1.859,0,0,1,58.3,173.8V163.238a1.859,1.859,0,0,1,1.815-1.891h2.034a.736.736,0,0,0,0-1.471H60.114a3.3,3.3,0,0,0-3.227,3.363V173.8a3.3,3.3,0,0,0,3.227,3.363H72.66a3.3,3.3,0,0,0,3.227-3.363V163.238A3.3,3.3,0,0,0,72.655,159.88Z" transform="translate(-56.887 -151.162)" fill="#e3e3e3"/>
      <path id="Контур_1118" data-name="Контур 1118" d="M144.929,5.677l3.033-3.161V14.4a.707.707,0,1,0,1.412,0V2.516l3.033,3.161a.7.7,0,0,0,.5.218.675.675,0,0,0,.5-.218.755.755,0,0,0,0-1.041L149.16.217a.684.684,0,0,0-1,0l-4.241,4.42a.755.755,0,0,0,0,1.041A.7.7,0,0,0,144.929,5.677Z" transform="translate(-139.171 0)" fill="#e3e3e3"/>
    </g>
  </g>
</svg>
